<svg xmlns="http://www.w3.org/2000/svg" width="1600" height="1000" viewBox="0 0 1600 1000"><defs><linearGradient id="w" y2="1"><stop stop-color="#f8ead4"/><stop offset="1" stop-color="#e7c89f"/></linearGradient><linearGradient id="f" y2="1"><stop stop-color="#ba7a44"/><stop offset="1" stop-color="#7d4828"/></linearGradient><linearGradient id="t" x2="1" y2="1"><stop stop-color="#c67a3a"/><stop offset=".5" stop-color="#8b461f"/><stop offset="1" stop-color="#c67a3a"/></linearGradient><filter id="s"><feDropShadow dy="12" stdDeviation="12" flood-opacity=".28"/></filter></defs><rect width="1600" height="680" fill="url(#w)"/><rect y="680" width="1600" height="320" fill="url(#f)"/><g fill="#f7f2e9" stroke="#b99a72" stroke-width="6"><rect x="35" y="115" width="310" height="390" rx="12"/><rect x="1255" y="115" width="310" height="390" rx="12"/><rect x="390" y="115" width="250" height="185" rx="12"/><rect x="960" y="115" width="250" height="185" rx="12"/></g><rect x="675" y="80" width="250" height="250" rx="10" fill="#cfeaf2" stroke="#fff" stroke-width="16"/><path d="M800 88v234M683 205h234" stroke="#fff" stroke-width="12"/><circle cx="870" cy="135" r="34" fill="#fff5b8"/><rect x="0" y="500" width="520" height="160" fill="#f4efe6" stroke="#b99a72" stroke-width="6"/><rect x="1080" y="500" width="520" height="160" fill="#f4efe6" stroke="#b99a72" stroke-width="6"/><rect x="0" y="485" width="535" height="32" fill="#5d5a58"/><rect x="1065" y="485" width="535" height="32" fill="#5d5a58"/><rect x="1120" y="535" width="240" height="95" rx="8" fill="#343536"/><path d="M160 555q70 45 140 0v55H160z" fill="#b8d7df" stroke="#65858e" stroke-width="5"/><g filter="url(#s)"><polygon points="300,610 1300,610 1450,855 150,855" fill="url(#t)" stroke="#6e351a" stroke-width="12"/><polygon points="150,855 1450,855 1390,910 210,910" fill="#6e351a"/><rect x="250" y="855" width="70" height="145" rx="12" fill="#74401f"/><rect x="1280" y="855" width="70" height="145" rx="12" fill="#74401f"/></g><ellipse cx="530" cy="735" rx="180" ry="78" fill="#f0cf8c" opacity=".32"/><ellipse cx="1070" cy="735" rx="180" ry="78" fill="#f0cf8c" opacity=".32"/></svg>